<?xml version="1.0" standalone="no"?>
<!DOCTYPE svg PUBLIC "-//W3C//DTD SVG 20010904//EN"
 "http://www.w3.org/TR/2001/REC-SVG-20010904/DTD/svg10.dtd">
<svg version="1.0" xmlns="http://www.w3.org/2000/svg"
 width="256.000000pt" height="256.000000pt" viewBox="0 0 256.000000 256.000000"
 preserveAspectRatio="xMidYMid meet">

<g transform="translate(0.000000,256.000000) scale(0.100000,-0.100000)"
fill="#000000" stroke="none">
<path d="M1125 2343 c-219 -34 -430 -141 -588 -298 -273 -272 -378 -673 -271
-1041 112 -387 437 -680 833 -749 543 -95 1064 242 1208 783 23 85 26 117 26
257 0 141 -3 172 -26 260 -51 190 -172 396 -305 516 -80 73 -217 161 -307 198
-139 58 -214 73 -385 76 -85 2 -168 1 -185 -2z m875 -348 c0 -3 -29 -58 -65
-123 -36 -64 -75 -147 -87 -184 -12 -38 -25 -68 -29 -68 -3 0 -17 32 -29 70
-28 88 -67 143 -122 172 -36 19 -63 23 -165 26 l-123 4 0 -663 0 -664 73 -67
72 -67 -277 -1 c-153 0 -278 1 -278 3 0 2 38 34 85 73 l85 69 0 609 0 608 -98
-4 c-146 -5 -199 -46 -223 -169 -7 -38 -17 -59 -25 -59 -18 0 -18 34 2 101 34
116 87 151 239 159 99 5 100 5 103 32 3 25 0 27 -44 34 -66 10 -189 -3 -237
-24 -76 -34 -137 -133 -137 -223 0 -54 -17 -37 -50 49 -18 48 -56 138 -85 200
l-54 112 735 0 c404 0 734 -2 734 -5z m74 -83 c3 -5 -4 -21 -15 -38 -29 -42
-102 -188 -129 -259 -28 -72 -36 -83 -51 -68 -9 9 -3 33 21 95 77 193 151 308
174 270z m-394 -114 c24 -13 50 -33 58 -46 14 -22 14 -22 -42 4 -40 18 -81 28
-137 31 l-79 6 0 -619 1 -619 94 -110 95 -110 -311 -3 c-240 -2 -315 1 -327
10 -12 11 40 14 277 18 l292 5 -80 90 -80 90 -1 638 0 637 98 0 c82 0 105 -4
142 -22z"/>
</g>
</svg>
